<svg width="24" height="19" viewBox="0 0 24 19" fill="none" xmlns="http://www.w3.org/2000/svg">
<path d="M23.5267 11.1335C23.2683 8.71434 22.5402 6.43607 21.4011 4.287C21.0371 3.59413 20.6143 2.9365 20.2033 2.27886C20.1446 2.17317 20.0271 2.09095 19.9214 2.04398C18.4887 1.39808 16.9973 0.94009 15.4589 0.658245C15.3297 0.634758 15.2592 0.658252 15.2005 0.775688C15.0596 1.08102 14.8834 1.38635 14.7543 1.69168C14.6838 1.85609 14.6016 1.86785 14.4489 1.85611C13.4742 1.79739 12.4995 1.70343 11.5248 1.69168C10.8789 1.67994 10.2447 1.77389 9.59884 1.84436C9.41094 1.86784 9.317 1.84435 9.23479 1.65645C9.10561 1.35112 8.94121 1.05755 8.80029 0.752213C8.74157 0.634778 8.67111 0.611283 8.54193 0.634771C6.99178 0.92836 5.48859 1.37462 4.05588 2.03226C3.96193 2.07923 3.85624 2.14968 3.79752 2.24363C2.2826 4.53363 1.19046 6.99976 0.673747 9.71252C0.32144 11.568 0.250971 13.4352 0.427124 15.3142C0.438868 15.3847 0.49758 15.4786 0.568041 15.5256C2.2826 16.7704 4.13809 17.7216 6.16972 18.3558C6.24019 18.3793 6.36936 18.3675 6.40459 18.3206C6.81562 17.6982 7.21491 17.064 7.62593 16.4064C6.93306 16.0658 6.28716 15.7605 5.64127 15.4434C5.93486 15.0441 6.06403 15.0089 6.43982 15.1733C10.139 16.7352 13.8383 16.7469 17.5375 15.185C17.9485 15.0089 18.0072 15.0206 18.3478 15.4317C18.019 15.6078 17.7136 15.784 17.3848 15.9366C17.0678 16.0893 16.7389 16.2185 16.3631 16.3829C16.692 16.9231 16.9973 17.4515 17.3261 17.9565C17.6314 18.4263 17.6432 18.4263 18.1716 18.2501C20.0506 17.616 21.8004 16.7117 23.4093 15.5373C23.4915 15.4786 23.5502 15.3495 23.5737 15.2438C23.6207 14.9267 23.6442 14.6096 23.6676 14.2925V12.4253C23.6207 12.0143 23.5737 11.568 23.5267 11.1335ZM9.52838 12.1552C8.75331 12.942 7.60244 12.9655 6.79213 12.2139C5.7587 11.2627 5.78218 9.47767 6.82736 8.56167C7.91951 7.5987 9.57537 8.09191 10.0686 9.53637C10.1625 9.81822 10.1978 10.1118 10.2565 10.3937C10.2095 11.0748 9.99813 11.6737 9.52838 12.1552ZM17.2791 12.167C16.5041 12.9538 15.3297 12.9772 14.5194 12.2139C13.5329 11.2744 13.5329 9.54812 14.5311 8.62038C15.6233 7.59869 17.3144 8.08018 17.8311 9.54813C17.8781 9.70079 17.925 9.85344 17.9485 10.0061C17.972 10.1353 17.972 10.2762 17.9837 10.3702C17.9603 11.0865 17.7606 11.6737 17.2791 12.167Z" fill="white"/>
</svg>
