<svg width="28" height="16" viewBox="0 0 28 16" fill="none" xmlns="http://www.w3.org/2000/svg">
<path d="M15.7093 7.7931C15.7093 11.9348 12.3426 15.2931 8.18763 15.2931C7.20141 15.2944 6.22458 15.1015 5.31292 14.7253C4.40126 14.3491 3.57263 13.797 2.87433 13.1005C2.17603 12.4041 1.62175 11.5769 1.24312 10.6663C0.864497 9.75564 0.668945 8.77933 0.667633 7.7931C0.667633 3.64977 4.0343 0.2931 8.18763 0.2931C9.174 0.291567 10.151 0.484356 11.0629 0.860457C11.9747 1.23656 12.8035 1.7886 13.502 2.48506C14.2005 3.18153 14.7549 4.00876 15.1337 4.91952C15.5124 5.83028 15.708 6.80673 15.7093 7.7931ZM23.9593 7.7931C23.9593 11.6931 22.276 14.8531 20.1993 14.8531C18.1226 14.8531 16.4393 11.6914 16.4393 7.7931C16.4393 3.8931 18.1226 0.7331 20.1993 0.7331C22.276 0.7331 23.9593 3.89477 23.9593 7.7931ZM27.3343 7.7931C27.3343 11.2864 26.7426 14.1181 26.011 14.1181C25.281 14.1181 24.6893 11.2848 24.6893 7.7931C24.6893 4.29977 25.281 1.4681 26.0126 1.4681C26.7426 1.4681 27.3343 4.29977 27.3343 7.7931Z" fill="white"/>
</svg>
