<svg width="22" height="19" viewBox="0 0 22 19" fill="none" xmlns="http://www.w3.org/2000/svg">
<path d="M6.81916 18.9599C14.9893 18.9599 19.4649 11.9012 19.4649 5.77793C19.4649 5.57139 19.4649 5.37697 19.4532 5.18259C20.3157 4.52652 21.0733 3.71252 21.6677 2.78917C20.8751 3.15365 20.0126 3.40879 19.1152 3.51813C20.036 2.94711 20.7353 2.03593 21.0733 0.954643C20.2108 1.48921 19.2667 1.86583 18.2527 2.08452C17.4369 1.18547 16.283 0.626587 15.0126 0.626587C12.5534 0.626587 10.5721 2.70412 10.5721 5.25548C10.5721 5.61996 10.6071 5.97228 10.6886 6.31246C6.994 6.11807 3.71894 4.2714 1.5278 1.47705C1.14318 2.15742 0.92173 2.95925 0.92173 3.80971C0.92173 5.41342 1.70261 6.8349 2.90308 7.66106C2.16881 7.63676 1.49283 7.43021 0.886766 7.07788C0.886766 7.10218 0.886766 7.11435 0.886766 7.13865C0.886766 9.38627 2.41357 11.2573 4.4532 11.6825C4.08024 11.7918 3.68397 11.8404 3.27605 11.8404C2.98467 11.8404 2.71661 11.8161 2.43689 11.7554C3.00798 13.5899 4.63968 14.9385 6.58607 14.9749C5.05926 16.2142 3.14783 16.9553 1.06158 16.9553C0.700279 16.9553 0.350642 16.931 0.000991821 16.8946C1.98234 18.1945 4.31334 18.9599 6.81916 18.9599Z" fill="white"/>
</svg>
