<svg width="136" height="48" viewBox="0 0 136 48" fill="none" xmlns="http://www.w3.org/2000/svg">
<path d="M51.4864 6.57544H65.3699C67.6374 6.57544 69.3034 7.0905 70.368 8.11852C71.4315 9.1476 71.9649 10.7137 71.9649 12.8169C71.9649 14.204 71.6642 15.3315 71.0627 16.1983C70.4613 17.0651 69.7205 17.6723 68.8413 18.0188C70.7159 18.5275 71.9879 19.7754 72.6596 21.7645C72.8901 22.4816 73.0064 23.3138 73.0064 24.2612C73.0064 26.5267 72.4741 28.1912 71.4095 29.2548C70.345 30.3184 68.6789 30.8502 66.4115 30.8502H51.4874V6.57544H51.4864ZM65.7168 13.5109C65.7168 12.1238 65.0231 11.4308 63.6347 11.4308H57.7345V16.2852H63.6347C65.0231 16.2852 65.7168 15.5921 65.7168 14.205V13.512V13.5109ZM66.7583 23.2207C66.7583 21.8336 66.0646 21.1395 64.6763 21.1395H57.7345V25.9949H64.6763C66.0646 25.9949 66.7583 25.3018 66.7583 23.9147V23.2217V23.2207Z" fill="white"/>
<path d="M92.7892 30.5015C88.3234 30.9631 84.2736 31.1945 80.6408 31.1945C79.067 31.1945 77.8065 30.7213 76.8571 29.7728C75.9078 28.8254 75.4342 27.565 75.4342 25.9926V17.67C75.4342 15.9364 75.9256 14.5786 76.9095 13.5956C77.8924 12.6136 79.2524 12.1216 80.9876 12.1216H87.9294C89.6646 12.1216 91.0236 12.6136 92.0075 13.5956C92.9903 14.5786 93.4828 15.9364 93.4828 17.67V24.0852H81.5084V25.4723C81.5084 25.8188 81.6236 26.1088 81.8552 26.3391C82.0857 26.5705 82.376 26.6856 82.7228 26.6856C85.0133 26.6856 88.3684 26.5118 92.7881 26.1653V30.5004L92.7892 30.5015ZM82.8967 16.4567C81.9715 16.4567 81.5084 16.9194 81.5084 17.8438V19.7512H87.4086V17.8438C87.4086 16.9194 86.9455 16.4567 86.0203 16.4567H82.8967Z" fill="white"/>
<path d="M97.4739 12.8168C101.708 12.3551 105.526 12.1238 108.928 12.1238C110.5 12.1238 111.762 12.598 112.711 13.5454C113.659 14.4939 114.134 15.7533 114.134 17.3257V30.8502H108.755L108.408 29.1166C107.32 29.8337 106.204 30.3592 105.058 30.6942C103.913 31.0292 102.947 31.1967 102.16 31.1967H100.945C99.3715 31.1967 98.111 30.7235 97.1616 29.775C96.2123 28.8276 95.7387 27.5672 95.7387 25.9948V24.4339C95.7387 22.8626 96.2123 21.6021 97.1616 20.6537C98.1099 19.7063 99.3715 19.232 100.945 19.232H108.061V17.8449C108.061 17.4984 107.945 17.2095 107.714 16.9781C107.483 16.7478 107.193 16.6316 106.847 16.6316C105.342 16.6316 103.682 16.7007 101.866 16.8399C100.049 16.9781 98.5867 17.0828 97.476 17.1519V12.8179L97.4739 12.8168ZM103.895 26.3413C105.121 26.3413 106.509 26.111 108.06 25.6483V23.5682H103.027C102.68 23.5682 102.39 23.6844 102.16 23.9147C101.929 24.145 101.813 24.435 101.813 24.7815V25.128C101.813 25.4745 101.928 25.7645 102.16 25.9948C102.39 26.2262 102.68 26.3413 103.027 26.3413H103.895Z" fill="white"/>
<path d="M127.497 17.1508C126.27 17.1508 124.882 17.3822 123.332 17.8439V30.8481H117.258V12.4703H122.637L122.984 14.2039C124.072 13.4878 125.188 12.9613 126.334 12.6263C127.479 12.2913 128.445 12.1238 129.232 12.1238H130.794C132.367 12.1238 133.629 12.598 134.578 13.5454C135.526 14.4939 136.001 15.7533 136.001 17.3257V30.8502H129.927V18.3663C129.927 18.0197 129.811 17.7308 129.58 17.4995C129.348 17.2691 129.059 17.1529 128.712 17.1529H127.498L127.497 17.1508Z" fill="white"/>
<path d="M68.1152 36.1734H71.7993V37.08H69.1169V38.2692H71.5174V39.1758H69.1169V40.3714H71.7993V41.2779H68.1152V36.1724V36.1734Z" fill="#1FC2E8"/>
<path d="M75.1209 38.6316L73.4465 36.1736H74.6975L75.7736 37.9062H75.8407L76.9095 36.1736H78.1333L76.4725 38.6055L78.2004 41.2792H76.9493L75.8397 39.3917H75.7726L74.6032 41.2792H73.3794L75.1209 38.6327V38.6316Z" fill="#1FC2E8"/>
<path d="M80.5664 41.0163C80.1766 40.7964 79.8727 40.4886 79.6558 40.0929C79.4379 39.6962 79.33 39.2408 79.33 38.7257C79.33 38.2107 79.4389 37.7553 79.6558 37.3585C79.8727 36.9617 80.1766 36.654 80.5664 36.4352C80.9562 36.2153 81.4004 36.1064 81.8981 36.1064C82.3152 36.1064 82.6997 36.1891 83.0507 36.3546C83.4028 36.52 83.6952 36.7534 83.9278 37.0528C84.1604 37.3533 84.3113 37.6977 84.3783 38.0871H83.3096C83.2194 37.7783 83.0455 37.527 82.7857 37.3344C82.5258 37.1418 82.2293 37.0455 81.8981 37.0455C81.6069 37.0455 81.347 37.1156 81.1186 37.257C80.8902 37.3983 80.7131 37.5951 80.5873 37.8484C80.4616 38.1018 80.3987 38.3939 80.3987 38.7247C80.3987 39.0555 80.4616 39.3486 80.5873 39.6009C80.7131 39.8542 80.8902 40.051 81.1186 40.1924C81.347 40.3337 81.6069 40.4038 81.8981 40.4038C82.2293 40.4038 82.5258 40.3075 82.7857 40.1149C83.0455 39.9223 83.2205 39.6721 83.3096 39.3622H84.3783C84.3113 39.7516 84.1614 40.0971 83.9278 40.3965C83.6952 40.697 83.4018 40.9294 83.0507 41.0948C82.6987 41.2602 82.3141 41.3429 81.8981 41.3429C81.4004 41.3429 80.9572 41.233 80.5664 41.0142V41.0163Z" fill="#1FC2E8"/>
<path d="M89.7505 39.1758H87.2158V41.2779H86.2141V36.1724H87.2158V38.2682H89.7505V36.1724H90.7522V41.2779H89.7505V39.1758Z" fill="#1FC2E8"/>
<path d="M94.255 36.1736H95.526L97.2811 41.2792H96.2322L95.876 40.1841H93.9124L93.5561 41.2792H92.5073L94.255 36.1736ZM95.5795 39.2765L94.9204 37.2676H94.8533L94.2016 39.2765H95.5795Z" fill="#1FC2E8"/>
<path d="M99.0352 36.1736H100.198L102.416 39.7675H102.484V36.1736H103.458V41.2792H102.295L100.077 37.6853H100.01V41.2792H99.0352V36.1736Z" fill="#1FC2E8"/>
<path d="M106.499 41.0133C106.131 40.7914 105.845 40.4825 105.638 40.0868C105.432 39.6901 105.329 39.2368 105.329 38.7269C105.329 38.2171 105.438 37.7628 105.655 37.367C105.872 36.9703 106.176 36.6615 106.566 36.4406C106.956 36.2186 107.4 36.1077 107.898 36.1077C108.323 36.1077 108.71 36.1904 109.057 36.3558C109.405 36.5212 109.692 36.7536 109.922 37.0509C110.15 37.3493 110.303 37.6947 110.379 38.0883H109.31C109.216 37.7701 109.045 37.5178 108.796 37.3294C108.547 37.1409 108.248 37.0478 107.898 37.0478C107.593 37.0478 107.328 37.1179 107.101 37.2592C106.875 37.4005 106.701 37.5974 106.58 37.8507C106.46 38.104 106.399 38.3961 106.399 38.7269C106.399 39.0577 106.462 39.3446 106.588 39.6C106.714 39.8555 106.891 40.0533 107.119 40.1946C107.347 40.336 107.611 40.4061 107.912 40.4061C108.253 40.4061 108.546 40.3245 108.793 40.1611C109.04 39.9978 109.205 39.7728 109.291 39.4859H107.933V38.5992H110.401V41.2792H109.634V39.9225H109.567L109.539 40.0638C109.364 40.9191 108.77 41.3472 107.758 41.3472C107.288 41.3472 106.869 41.2363 106.501 41.0143L106.499 41.0133Z" fill="#1FC2E8"/>
<path d="M112.348 36.1734H116.032V37.08H113.349V38.2692H115.75V39.1758H113.349V40.3714H116.032V41.2779H112.348V36.1724V36.1734Z" fill="#1FC2E8"/>
<path d="M44.6421 42.2537C48.8249 34.9769 42.8755 29.7436 38.2095 26.0649C33.5436 22.3863 30.2786 16.8221 28.9008 14.6802C27.5229 12.5394 23.0634 4.49944 23.0634 4.49944C23.0634 4.49944 21.8752 1.99743 19.2881 0.725481C17.137 -0.331857 14.0208 -0.540184 9.81483 2.24239C0.547957 8.37181 2.81333 24.1272 14.8684 37.8098C23.7602 47.9026 33.4588 49.4834 39.6136 46.6977C41.8035 45.7063 43.544 44.1632 44.6421 42.2537ZM29.4729 22.5967C26.1723 18.1192 24.3784 14.6949 26.6239 14.0867C26.6239 14.0867 30.6003 20.8254 32.368 22.2365C34.1356 23.6477 35.1133 25.0589 35.1562 25.4295C35.1573 25.4431 35.1562 25.4578 35.151 25.4724C35.0713 25.7289 34.1199 26.2262 32.6436 25.5174C31.7519 25.0893 30.6695 24.2225 29.4729 22.5977V22.5967Z" fill="#3993FA"/>
<g style="mix-blend-mode:multiply" opacity="0.66">
<path d="M39.6136 46.6977C33.4588 49.4834 23.7602 47.9026 14.8684 37.8098C2.81333 24.1272 0.547957 8.37181 9.81483 2.24239C14.0208 -0.540184 17.137 -0.331857 19.2881 0.725481C16.0137 2.57425 9.88503 7.92061 12.9342 21.1897C16.371 36.1473 30.4631 47.4671 39.6147 46.6977H39.6136Z" fill="#3993FA"/>
</g>
<g style="mix-blend-mode:multiply">
<path d="M32.6446 25.5164C31.7529 25.0882 30.6705 24.2214 29.4739 22.5967C26.1733 18.1192 24.3795 14.6949 26.6249 14.0867C26.6249 14.0867 30.6014 20.8254 32.369 22.2365C34.1367 23.6477 35.1143 25.0589 35.1573 25.4295C35.1583 25.4431 35.1573 25.4578 35.152 25.4724C35.0724 25.7289 34.121 26.2262 32.6446 25.5174V25.5164Z" fill="#3993FA"/>
</g>
<path opacity="0.2" d="M39.9405 43.9685C39.9405 43.9685 40.1962 38.038 37.7967 33.8526C36.6829 31.9107 33.5698 27.3233 32.6446 25.5174C34.121 26.2262 35.0724 25.7289 35.152 25.4724C36.4859 26.4481 41.09 29.9719 42.6345 33.1502C44.4482 36.8822 43.8614 40.1851 41.8046 42.5646C39.7477 44.9442 39.9416 43.9695 39.9416 43.9695L39.9405 43.9685Z" fill="#7DBEFF"/>
<g style="mix-blend-mode:screen">
<path d="M44.6421 42.254C48.8249 34.9772 42.8755 29.7439 38.2095 26.0652C33.5436 22.3865 30.2786 16.8224 28.9008 14.6805C27.5229 12.5396 23.0634 4.49969 23.0634 4.49969C23.0634 4.49969 21.8752 1.99767 19.2881 0.725725C17.137 -0.331613 14.0208 -0.53994 9.81483 2.24264C0.547956 8.37206 2.81333 24.1274 14.8684 37.81C23.7602 47.9029 33.4588 49.4837 39.6136 46.6979C41.8035 45.7066 43.544 44.1635 44.6421 42.254ZM29.4729 22.5969C26.1723 18.1195 24.3784 14.6951 26.6239 14.0869C26.6239 14.0869 30.6003 20.8256 32.368 22.2368C34.1356 23.648 35.1133 25.0592 35.1562 25.4297C35.1573 25.4434 35.1562 25.458 35.151 25.4727C35.0713 25.7291 34.1199 26.2264 32.6436 25.5177C31.7519 25.0895 30.6695 24.2227 29.4729 22.598V22.5969Z" fill="url(#paint0_linear_2_1124)"/>
<path d="M16.1436 0.0815855C17.2386 0.0815855 18.2843 0.322365 19.2514 0.797644C21.7819 2.04237 22.9774 4.5088 22.9921 4.53811C23.0372 4.61872 27.4684 12.6053 28.8316 14.7231C28.9636 14.9272 29.1092 15.1586 29.2779 15.4255C30.9031 17.9998 33.9281 22.7913 38.1582 26.1266C40.6666 28.1052 43.1929 30.289 44.6724 32.8486C45.4981 34.2765 45.9361 35.7317 45.9749 37.1722C46.0189 38.8168 45.5463 40.5127 44.5697 42.2118C43.4758 44.114 41.7501 45.6392 39.579 46.6212C37.7977 47.4273 35.81 47.8356 33.6714 47.8356C30.7009 47.8356 27.6475 47.0525 24.5995 45.5094C21.2003 43.7884 17.9469 41.1785 14.9292 37.7532C11.1225 33.4317 8.14248 28.704 6.31195 24.0811C4.53486 19.5931 3.85587 15.2622 4.34939 11.5563C4.88378 7.53634 6.78975 4.33816 9.8588 2.30723C12.0938 0.831144 14.2083 0.0815855 16.1436 0.0815855ZM34.0832 25.9623C34.7014 25.9623 35.1593 25.7205 35.2285 25.4975C35.2369 25.4713 35.24 25.4451 35.2369 25.419C35.1908 25.0243 34.21 23.6026 32.4182 22.1726C30.682 20.7876 26.7328 14.1128 26.693 14.0447L26.6615 13.9913L26.6018 14.007C26.101 14.1431 25.7741 14.4216 25.6295 14.8351C25.1957 16.0777 26.3965 18.5588 29.4068 22.6437C30.4724 24.0894 31.5496 25.0808 32.6079 25.5886C33.1234 25.8356 33.619 25.9612 34.0822 25.9612M16.1436 0.000976562C14.3958 0.000976562 12.2939 0.601879 9.81374 2.24232C0.547922 8.37174 2.8133 24.1261 14.8684 37.8097C21.258 45.0624 28.0646 47.9193 33.6725 47.9193C35.8687 47.9193 37.8815 47.4807 39.6136 46.6976C41.8035 45.7062 43.5439 44.1632 44.642 42.2537C48.8249 34.9769 42.8754 29.7436 38.2095 26.0649C33.5436 22.3862 30.2786 16.8221 28.9007 14.6802C27.5229 12.5393 23.0634 4.49937 23.0634 4.49937C23.0634 4.49937 21.8751 1.99736 19.2881 0.72541C18.4058 0.292006 17.3601 0.000976562 16.1446 0.000976562H16.1436ZM34.0832 25.8817C33.6924 25.8817 33.2062 25.7864 32.6435 25.5163C31.7518 25.0882 30.6694 24.2213 29.4728 22.5966C26.1722 18.1191 24.3784 14.6948 26.6238 14.0866C26.6238 14.0866 30.6003 20.8253 32.3679 22.2365C34.1356 23.6477 35.1132 25.0588 35.1562 25.4294C35.1572 25.443 35.1562 25.4577 35.1509 25.4724C35.1017 25.6315 34.7182 25.8817 34.0832 25.8817Z" fill="url(#paint1_linear_2_1124)"/>
<g style="mix-blend-mode:multiply">
<path d="M39.6136 46.6979C33.4588 49.4837 23.7602 47.9029 14.8684 37.81C2.81333 24.1274 0.547957 8.37206 9.81483 2.24264C14.0208 -0.53994 17.137 -0.331613 19.2881 0.725725C16.0137 2.5745 9.88503 7.92086 12.9342 21.1899C16.371 36.1476 30.4631 47.4674 39.6147 46.6979H39.6136Z" fill="url(#paint2_linear_2_1124)"/>
<path d="M16.1449 0.0816558C17.1875 0.0816558 18.1861 0.300451 19.1134 0.731762C16.0967 2.48631 9.79097 7.87455 12.8548 21.2075C14.4014 27.9378 18.2123 34.4158 23.5854 39.4492C28.5102 44.0617 34.1663 46.8149 38.7159 46.8149C38.8626 46.8149 39.0093 46.8118 39.1549 46.8066C37.4847 47.4912 35.6437 47.8377 33.6738 47.8377C30.7022 47.8377 27.6499 47.0547 24.6018 45.5116C21.2027 43.7905 17.9493 41.1807 14.9315 37.7553C11.1248 33.4339 8.14485 28.7062 6.31432 24.0832C4.53723 19.5953 3.85825 15.2644 4.35177 11.5585C4.88615 7.53851 6.79213 4.34032 9.86117 2.30939C12.0941 0.831214 14.2086 0.0827027 16.1449 0.0816558ZM16.1449 0C14.3972 0 12.2952 0.600903 9.81507 2.24135C0.548201 8.37181 2.81357 24.1261 14.8687 37.8098C21.2593 45.0625 28.0638 47.9194 33.6727 47.9194C35.869 47.9194 37.8818 47.4808 39.6139 46.6977C39.3194 46.7228 39.0197 46.7343 38.7159 46.7343C29.5664 46.7343 16.2602 35.6647 12.9334 21.1897C9.88527 7.92061 16.0139 2.57425 19.2884 0.72548C18.4061 0.292076 17.3604 0.00104687 16.1449 0.00104687V0Z" fill="url(#paint3_linear_2_1124)"/>
</g>
<path d="M12.6061 2.52197C15.387 3.29037 4.07484 10.8728 10.6981 27.651C17.7027 39.868 27.7345 45.1693 27.7345 45.1693C27.7345 45.1693 16.4349 41.7209 9.35583 28.1943C2.2768 14.6678 5.68324 5.65839 12.6061 2.52197Z" fill="url(#paint4_linear_2_1124)"/>
<path d="M12.6125 2.60869C12.7833 2.66103 12.8912 2.74269 12.9394 2.85889C13.105 3.25042 12.646 4.08268 12.0121 5.23319C10.0736 8.75067 6.03849 16.0693 10.6227 27.6812L10.6248 27.6864L10.6279 27.6917C14.2523 34.0127 18.6982 38.4472 21.7903 41.0539C24.019 42.933 25.8851 44.1589 26.891 44.7734C25.7793 44.3275 23.6994 43.3759 21.2454 41.6873C19.0964 40.208 17.0866 38.4629 15.2729 36.4979C13.0054 34.042 11.0387 31.2353 9.42712 28.1565C4.68367 19.0927 5.11746 13.0428 6.31721 9.56409C7.41113 6.39103 9.58744 3.98637 12.6125 2.60764M12.6062 2.52075C5.68224 5.65717 2.27684 14.6665 9.35587 28.1931C16.4339 41.7197 27.7345 45.1681 27.7345 45.1681C27.7345 45.1681 17.7028 39.8668 10.6981 27.6498C4.07594 10.8727 15.3871 3.2902 12.6062 2.5218V2.52075Z" fill="url(#paint5_linear_2_1124)"/>
<path d="M32.6435 25.5165C31.7518 25.0883 30.6695 24.2215 29.4728 22.5968C26.4478 18.492 24.6875 15.2729 26.145 14.2961C26.3808 14.1381 26.7014 14.2187 26.847 14.4615C27.7104 15.8979 30.8507 21.0265 32.3669 22.2356C34.1346 23.6468 35.1122 25.058 35.1551 25.4285C35.1562 25.4422 35.1551 25.4568 35.1499 25.4715C35.0703 25.728 34.1189 26.2252 32.6425 25.5165H32.6435Z" fill="url(#paint6_linear_2_1124)"/>
<path d="M32.6435 25.5165C32.0557 25.2328 31.5276 24.8392 31.0487 24.3984C30.5688 23.9577 30.135 23.4678 29.7327 22.9558C29.3335 22.4408 28.9552 21.9111 28.5769 21.3803C28.2018 20.8485 27.8351 20.3094 27.483 19.7608C27.132 19.2122 26.7957 18.6532 26.4907 18.0764C26.189 17.4996 25.9092 16.9049 25.73 16.2747C25.6431 15.9596 25.5833 15.633 25.5959 15.3022C25.6043 14.9745 25.7164 14.6311 25.9647 14.3987C25.992 14.3663 26.0276 14.3432 26.0601 14.3171C26.0936 14.2919 26.1251 14.2647 26.1638 14.2438C26.2403 14.1998 26.3283 14.1799 26.4153 14.1799C26.5903 14.1799 26.7621 14.27 26.8596 14.4155L27.372 15.2498C28.0509 16.3606 28.7467 17.4608 29.4718 18.5422C30.2011 19.6184 30.9419 20.6946 31.8074 21.6661L31.975 21.843C32.0305 21.9016 32.0861 21.9624 32.1479 22.0147C32.2684 22.1225 32.3868 22.2335 32.5146 22.335C32.7682 22.5402 33.0113 22.758 33.2502 22.9789C33.7249 23.4248 34.1744 23.9001 34.5736 24.4162C34.7706 24.6748 34.9602 24.9428 35.1017 25.238C35.1279 25.3134 35.174 25.3898 35.1562 25.4767C35.1258 25.5573 35.0566 25.6107 34.9906 25.6568C34.8533 25.7478 34.6972 25.8023 34.538 25.8389C34.2184 25.9091 33.8852 25.8954 33.5666 25.8316C33.246 25.7688 32.9379 25.6568 32.6435 25.5175V25.5165ZM32.6435 25.5165C32.939 25.6547 33.247 25.7646 33.5677 25.8264C33.8862 25.8881 34.2184 25.8996 34.5369 25.8284C34.6941 25.7918 34.8502 25.7363 34.9843 25.6463C35.0493 25.6013 35.1163 25.5468 35.1436 25.4725C35.1604 25.3971 35.1153 25.3176 35.0881 25.2443C34.9466 24.9522 34.7559 24.6853 34.5579 24.4288C34.1566 23.9169 33.706 23.4447 33.2303 23.0009C32.9903 22.781 32.7472 22.5654 32.4926 22.3623C32.3648 22.2618 32.2443 22.1508 32.1217 22.0419C32.0588 21.9896 32.0033 21.9289 31.9467 21.8702L31.777 21.6933C30.9031 20.7229 30.157 19.6498 29.4215 18.5757C28.6912 17.4975 27.9881 16.3993 27.3038 15.2907L26.7978 14.4574C26.7139 14.3317 26.5651 14.2522 26.4132 14.2511C26.3378 14.2511 26.2623 14.2679 26.1963 14.3056C26.1628 14.3223 26.1324 14.3485 26.101 14.3726C26.0695 14.3966 26.036 14.4186 26.0108 14.449C25.7772 14.6657 25.6682 14.9881 25.6577 15.3053C25.6441 15.6257 25.7007 15.9481 25.7856 16.2601C25.9595 16.885 26.2351 17.4776 26.5327 18.0544C26.8344 18.6302 27.1666 19.1902 27.5145 19.7399C28.2144 20.837 28.9636 21.9037 29.7463 22.9433C30.1455 23.4573 30.5762 23.9483 31.0529 24.3911C31.5297 24.8339 32.0546 25.2296 32.6414 25.5165H32.6435Z" fill="url(#paint7_linear_2_1124)"/>
<g style="mix-blend-mode:multiply">
<path d="M32.6435 25.5163C32.0557 25.2337 31.5265 24.84 31.0466 24.4004C30.5646 23.9607 30.1245 23.477 29.718 22.9672C28.9143 21.9402 28.1389 20.8923 27.4118 19.8057C27.0503 19.2613 26.7034 18.7064 26.3859 18.1307C26.2267 17.8438 26.0779 17.5486 25.9406 17.2481C25.8044 16.9467 25.6776 16.6378 25.5854 16.3143C25.4932 15.9909 25.4272 15.6517 25.4366 15.2936C25.4429 15.1157 25.4681 14.9314 25.5383 14.7545C25.6043 14.5786 25.707 14.4059 25.8495 14.2771C25.8819 14.2405 25.9207 14.2143 25.9584 14.184C25.9972 14.1547 26.0297 14.1264 26.0842 14.096C26.1848 14.0384 26.3021 14.0112 26.4174 14.0112C26.6479 14.0112 26.8711 14.1295 27 14.319L27.5176 15.1596C27.856 15.7145 28.1976 16.2672 28.5465 16.8158C28.8934 17.3654 29.2402 17.914 29.5975 18.4573C30.3111 19.5408 31.0278 20.6306 31.8702 21.6084L32.0326 21.7863C32.0871 21.846 32.1405 21.9067 32.2003 21.958C32.3166 22.0658 32.4297 22.1758 32.5586 22.2815C32.8101 22.4919 33.05 22.7149 33.2858 22.941C33.7552 23.3964 34.1953 23.8832 34.5893 24.4035C34.7852 24.6652 34.9728 24.9343 35.1111 25.2337C35.1373 25.3111 35.1834 25.3855 35.1635 25.4786C35.131 25.5624 35.0608 25.6147 34.9937 25.6608C34.8554 25.7508 34.6972 25.8042 34.539 25.8409C34.2184 25.9099 33.8852 25.8963 33.5666 25.8325C33.246 25.7697 32.9379 25.6566 32.6445 25.5163H32.6435ZM32.6435 25.5163C32.939 25.6535 33.2481 25.7634 33.5677 25.8241C33.8862 25.8848 34.2184 25.8963 34.5358 25.8241C34.693 25.7875 34.8491 25.732 34.9812 25.6399C35.0451 25.5948 35.1111 25.5394 35.1362 25.4682C35.1509 25.4347 35.13 25.397 35.1237 25.3582C35.1111 25.3206 35.0943 25.2839 35.0797 25.2473C34.9372 24.9573 34.7444 24.6935 34.5442 24.4391C34.1387 23.9324 33.6777 23.4707 33.1967 23.0373C32.9536 22.8227 32.7074 22.6113 32.4507 22.4134C32.3229 22.3171 32.1971 22.2051 32.0714 22.0962C32.0064 22.0439 31.9488 21.9842 31.8912 21.9256L31.7172 21.7497C30.8203 20.7855 30.0512 19.7261 29.2989 18.6583C28.5528 17.5863 27.8476 16.4881 27.1613 15.3784L26.6615 14.5514C26.6091 14.4698 26.5106 14.4185 26.4153 14.4174C26.3681 14.4174 26.321 14.4268 26.2801 14.4509C26.2623 14.4593 26.233 14.4834 26.2068 14.5033C26.1806 14.5242 26.1512 14.542 26.1292 14.5682C25.9343 14.7493 25.8337 15.0173 25.8201 15.3114C25.8044 15.6056 25.8537 15.9155 25.9333 16.218C26.0947 16.8263 26.3535 17.4209 26.6406 17.9977C26.9298 18.5745 27.2514 19.1388 27.5888 19.6926C27.9273 20.2464 28.2814 20.7918 28.644 21.332C28.8253 21.6021 29.0097 21.8701 29.1951 22.137C29.3816 22.404 29.5661 22.672 29.7641 22.9295C30.1591 23.4456 30.5814 23.9429 31.0582 24.3868C31.5339 24.8296 32.0588 25.2263 32.6445 25.5142L32.6435 25.5163Z" fill="url(#paint8_linear_2_1124)"/>
</g>
<g opacity="0.2">
<path d="M39.9405 43.9685C39.9405 43.9685 39.1337 36.1672 37.7967 33.8526C36.6776 31.9138 33.5698 27.3233 32.6446 25.5174C34.121 26.2262 35.0724 25.7289 35.152 25.4724C36.4859 26.4481 41.09 29.9719 42.6345 33.1502C44.4482 36.8822 43.8614 40.1851 41.8046 42.5646C39.7477 44.9442 39.9416 43.9695 39.9416 43.9695L39.9405 43.9685Z" fill="url(#paint9_linear_2_1124)"/>
<path d="M35.1772 25.5917C36.6231 26.6553 41.0554 30.0869 42.5611 33.1846C44.2418 36.6435 43.9516 39.9547 41.7428 42.5101C40.5147 43.9307 40.1469 44.0846 40.0464 44.0846C40.0369 44.0846 40.0317 44.0836 40.0285 44.0804C40.016 44.0658 40.0139 44.0176 40.0202 43.9841L40.0223 43.9726V43.96C39.9877 43.6407 39.1966 36.1148 37.8669 33.8117C37.3954 32.9951 36.576 31.7158 35.7094 30.3622C34.5768 28.5941 33.4084 26.7694 32.8259 25.688C33.2639 25.8712 33.6861 25.9633 34.0832 25.9633C34.6134 25.9633 35.0263 25.7843 35.1772 25.5917ZM35.152 25.4723C35.1028 25.6314 34.7193 25.8816 34.0843 25.8816C33.6935 25.8816 33.2073 25.7864 32.6446 25.5163C33.5698 27.3221 36.6776 31.9137 37.7967 33.8514C39.1337 36.1661 39.9405 43.9673 39.9405 43.9673C39.9405 43.9673 39.9018 44.1652 40.0464 44.1652C40.2234 44.1652 40.674 43.871 41.8046 42.5625C43.8614 40.184 44.4493 36.88 42.6345 33.148C41.09 29.9707 36.4848 26.4469 35.152 25.4702V25.4723Z" fill="url(#paint10_linear_2_1124)"/>
</g>
</g>
<path d="M27.4631 16.6011C27.899 17.3675 28.3496 18.1212 28.8159 18.8624C29.2863 19.6015 29.7715 20.3311 30.2954 21.0294C30.5521 21.3822 30.8245 21.7235 31.1043 22.0585C31.3799 22.3966 31.6764 22.7159 31.9792 23.03C32.2841 23.3409 32.6016 23.6403 32.9422 23.9125C33.2806 24.1878 33.64 24.438 34.0225 24.6578C33.6096 24.5008 33.2198 24.282 32.85 24.036C32.6645 23.9135 32.4895 23.7764 32.3114 23.6424C32.1406 23.5011 31.9698 23.3576 31.8074 23.2058C31.1504 22.606 30.5741 21.9255 30.0418 21.2168C29.7809 20.8588 29.5263 20.4965 29.2874 20.1239C29.0506 19.7501 28.819 19.3733 28.6053 18.987C28.1746 18.2165 27.7806 17.424 27.4621 16.6001L27.4631 16.6011Z" fill="url(#paint11_linear_2_1124)"/>
<path d="M27.0839 23.8289C21.5828 26.9883 15.867 29.6296 11.198 31.1632C1.31707 34.4724 -2.64681 32.4048 1.98243 26.5078C2.34183 26.0398 2.75048 25.5531 3.20523 25.0495C3.51119 24.7114 4.0571 24.7595 4.29705 25.1469C4.29915 25.1511 4.30229 25.1552 4.30439 25.1594C4.45632 25.4054 4.43641 25.7216 4.25619 25.9477C3.34144 27.0919 2.74209 28.1168 2.51262 28.9627C0.93671 34.2735 12.9771 31.6919 27.0839 23.8289Z" fill="#187CE4"/>
<path d="M27.0839 23.8289C21.5828 26.9883 15.867 29.6296 11.198 31.1632C1.31707 34.4724 -2.64681 32.4048 1.98243 26.5078C2.34183 26.0398 2.75048 25.5531 3.20523 25.0495C3.51119 24.7114 4.0571 24.7595 4.29705 25.1469C4.29915 25.1511 4.30229 25.1552 4.30439 25.1594C4.45632 25.4054 4.43641 25.7216 4.25619 25.9477C3.34144 27.0919 2.74209 28.1168 2.51262 28.9627C0.93671 34.2735 12.9771 31.6919 27.0839 23.8289Z" fill="url(#paint12_linear_2_1124)"/>
<path d="M3.71341 25.0464C3.87477 25.0464 4.02146 25.1281 4.10634 25.2642L4.11053 25.2715L4.11367 25.2767C4.21531 25.4422 4.20273 25.6557 4.08014 25.8075C3.13187 26.9947 2.53147 28.0352 2.29676 28.901C2.04528 29.749 2.11444 30.441 2.50213 30.9602C3.00508 31.6333 4.01937 31.9746 5.51669 31.9746C6.71854 31.9746 8.21062 31.7558 9.93637 31.3318C7.39123 32.1076 5.20654 32.5148 3.56881 32.5148C1.93107 32.5148 0.824581 32.1002 0.442129 31.3151C-0.0461528 30.3111 0.54691 28.6969 2.15845 26.6429C2.50737 26.1875 2.91497 25.7007 3.36972 25.1993C3.45879 25.1009 3.58033 25.0464 3.71236 25.0464M27.0818 23.8279C18.0203 28.879 9.81064 31.7506 5.51565 31.7506C3.12453 31.7506 1.94679 30.8607 2.51051 28.9617C2.73894 28.1169 3.33934 27.091 4.25408 25.9467C4.4343 25.7206 4.45526 25.4055 4.30228 25.1585C4.30018 25.1543 4.29704 25.1501 4.29494 25.1459C4.16292 24.9323 3.93869 24.8224 3.71236 24.8224C3.52689 24.8224 3.34143 24.8967 3.20312 25.0485C2.74837 25.551 2.33972 26.0378 1.98032 26.5068C-1.15579 30.5006 -0.348971 32.7378 3.56776 32.7378C5.43392 32.7378 8.00735 32.2301 11.1958 31.1622C15.8649 29.6286 21.5797 26.9873 27.0818 23.8279Z" fill="url(#paint13_linear_2_1124)"/>
<path d="M27.0839 23.8289C21.5828 26.9883 15.867 29.6296 11.198 31.1632C1.31707 34.4724 -2.64681 32.4048 1.98243 26.5078C2.34183 26.0398 2.75048 25.5531 3.20523 25.0495C3.51119 24.7114 4.0571 24.7595 4.29705 25.1469C4.29915 25.1511 4.30229 25.1552 4.30439 25.1594C4.45632 25.4054 4.43641 25.7216 4.25619 25.9477C3.34144 27.0919 2.74209 28.1168 2.51262 28.9627C0.93671 34.2735 12.9771 31.6919 27.0839 23.8289Z" fill="#187CE4"/>
<path d="M27.0839 23.8289C21.5828 26.9883 15.867 29.6296 11.198 31.1632C1.31707 34.4724 -2.64681 32.4048 1.98243 26.5078C2.34183 26.0398 2.75048 25.5531 3.20523 25.0495C3.51119 24.7114 4.0571 24.7595 4.29705 25.1469C4.29915 25.1511 4.30229 25.1552 4.30439 25.1594C4.45632 25.4054 4.43641 25.7216 4.25619 25.9477C3.34144 27.0919 2.74209 28.1168 2.51262 28.9627C0.93671 34.2735 12.9771 31.6919 27.0839 23.8289Z" fill="url(#paint14_linear_2_1124)"/>
<path d="M27.0838 23.8288C24.5471 25.2891 21.9527 26.6532 19.3038 27.9011C16.6539 29.1458 13.9495 30.2837 11.1686 31.2081C9.78023 31.6729 8.37092 32.0844 6.93437 32.3838C6.21662 32.5324 5.49153 32.6539 4.7612 32.724C4.03088 32.7931 3.29217 32.8172 2.5587 32.7303C2.19301 32.6874 1.82837 32.6109 1.4784 32.4864C1.30446 32.4215 1.13367 32.345 0.972308 32.2508C0.811992 32.1545 0.661107 32.0404 0.529082 31.9064C0.262938 31.6405 0.0848091 31.2846 0.029275 30.9129C-0.00111165 30.7276 -0.00530291 30.5392 0.00517523 30.3528C0.0187968 30.1665 0.0502312 29.9833 0.091096 29.8022C0.269224 29.0799 0.609764 28.4161 0.99536 27.7912C1.3841 27.1662 1.83152 26.582 2.28941 26.0094C2.52098 25.7246 2.76093 25.4472 3.00507 25.1729C3.06794 25.1038 3.12242 25.0379 3.19472 24.9677C3.26702 24.8987 3.35294 24.8432 3.4462 24.8076C3.63376 24.7374 3.84856 24.7458 4.02983 24.8296C4.2132 24.9154 4.35256 25.0735 4.42171 25.2609C4.49192 25.4483 4.47934 25.6629 4.39237 25.8419C4.37037 25.8859 4.34522 25.9298 4.31379 25.9686L4.22891 26.0774C4.17233 26.1486 4.11575 26.2208 4.06126 26.2931C3.9502 26.4376 3.84122 26.5841 3.73644 26.7328C3.52583 27.0301 3.32465 27.3337 3.14443 27.6498C2.9642 27.9649 2.80179 28.2916 2.67605 28.6307C2.5566 28.971 2.45497 29.3238 2.43087 29.6808C2.42248 29.8598 2.42772 30.0388 2.4644 30.2126C2.50316 30.3853 2.56499 30.5528 2.65929 30.7025C2.75569 30.8512 2.87723 30.982 3.01555 31.094C3.15805 31.1998 3.31208 31.294 3.47763 31.3652C3.80665 31.5128 4.16395 31.5902 4.5223 31.6415C5.2432 31.7379 5.97772 31.7148 6.7028 31.6447C8.15717 31.5002 9.58848 31.1736 10.9978 30.7852C12.4071 30.3926 13.7955 29.9268 15.166 29.4148C16.5365 28.9019 17.8914 28.346 19.2294 27.7524C21.9066 26.5674 24.523 25.2473 27.0828 23.8277L27.0838 23.8288ZM27.0838 23.8288C24.5293 25.2577 21.9171 26.5883 19.2441 27.7838C17.9081 28.3826 16.5544 28.9438 15.1849 29.462C13.8143 29.9791 12.427 30.4513 11.0167 30.8501C9.6063 31.2448 8.17289 31.5777 6.71223 31.7284C5.98296 31.8017 5.2432 31.8279 4.51078 31.7337C4.14614 31.6834 3.78045 31.6049 3.43886 31.4541C3.26702 31.3809 3.10566 31.2846 2.95477 31.1725C2.80808 31.0542 2.67815 30.9161 2.57442 30.7569C2.47278 30.5968 2.40572 30.4177 2.36381 30.2335C2.32399 30.0493 2.3177 29.8608 2.32608 29.6734C2.33342 29.5803 2.34285 29.4881 2.35752 29.396C2.37638 29.3049 2.38791 29.2118 2.4141 29.1238C2.45916 28.9448 2.50945 28.7668 2.57337 28.5931C2.7012 28.2455 2.86466 27.9136 3.04593 27.5943C3.2272 27.274 3.42838 26.9662 3.64004 26.6658C3.74587 26.515 3.8538 26.3674 3.96591 26.2219C4.02145 26.1486 4.07698 26.0764 4.13461 26.0041L4.21844 25.8963C4.24463 25.8639 4.26454 25.8272 4.2834 25.7895C4.3557 25.6388 4.36513 25.4598 4.30645 25.3038C4.24882 25.1489 4.12832 25.0128 3.97849 24.9437C3.8276 24.8746 3.64843 24.8683 3.49335 24.9269C3.41581 24.9573 3.34561 25.0033 3.28588 25.0609C3.2272 25.1185 3.16434 25.1939 3.10461 25.2598C2.86257 25.5331 2.62576 25.8105 2.39524 26.0931C1.93735 26.6616 1.48993 27.2395 1.10433 27.8561C0.719785 28.4716 0.383436 29.127 0.207403 29.8273C0.166539 30.0032 0.136152 30.1801 0.121483 30.3591C0.109957 30.5381 0.114148 30.7172 0.141391 30.893C0.192734 31.2458 0.357241 31.5766 0.607668 31.8289C0.732358 31.9556 0.874861 32.0645 1.02784 32.1576C1.18292 32.2487 1.34638 32.3231 1.51508 32.3869C1.85457 32.5094 2.21082 32.5858 2.57127 32.6298C3.29322 32.7177 4.02669 32.6968 4.75282 32.6308C5.48001 32.5638 6.20195 32.4455 6.91761 32.3C8.34997 32.0069 9.75823 31.6018 11.1476 31.1422C13.9285 30.2293 16.6361 29.1029 19.2902 27.8686C21.9433 26.6312 24.5418 25.2776 27.0838 23.8267V23.8288Z" fill="url(#paint15_linear_2_1124)"/>
<path d="M36.1632 22.4878C33.6652 24.8182 31.9321 25.8253 27.8655 28.0729C27.7555 28.2153 22.4913 30.7351 22.7071 30.2012C28.1055 27.3432 35.4255 22.5402 37.3095 19.8728C40.017 16.1271 37.0905 14.8122 31.1756 16.1805L31.0299 16.0601C32.5535 15.6403 33.946 15.366 35.1363 15.2529C40.8155 14.6625 41.221 17.8387 36.1632 22.4878Z" fill="#187CE4"/>
<path d="M36.1632 22.4878C33.6652 24.8182 30.8277 26.4377 26.7611 28.6853C18.8889 32.565 20.7844 31.2889 23.1283 29.9761C28.5267 27.1181 35.4255 22.5402 37.3095 19.8728C40.017 16.1271 37.0905 14.8122 31.1756 16.1805L31.0299 16.0601C32.5534 15.6403 33.946 15.366 35.1363 15.2529C40.8155 14.6625 41.221 17.8387 36.1632 22.4878Z" fill="url(#paint16_linear_2_1124)"/>
<path d="M36.1631 22.4879C34.6952 23.8624 33.0469 25.0307 31.3348 26.0807C30.4798 26.6084 29.6101 27.1119 28.7362 27.6081L27.4223 28.3462L26.7632 28.7126L26.0863 29.0455C25.1841 29.4883 24.2809 29.928 23.3714 30.3562C22.9167 30.5697 22.4609 30.7812 21.9998 30.9822C21.7683 31.0816 21.5378 31.1811 21.2978 31.2638C21.2349 31.2816 21.1815 31.3057 21.1029 31.3078C21.0935 31.3057 21.0704 31.3078 21.0579 31.2753C21.0537 31.247 21.0641 31.2387 21.0683 31.2303C21.0799 31.2125 21.0914 31.202 21.104 31.1895C21.1281 31.1664 21.1532 31.1465 21.1784 31.1267C21.2789 31.0492 21.3848 30.979 21.4896 30.911C21.9129 30.6388 22.3477 30.3865 22.7847 30.1363L23.1126 29.951L23.4448 29.7731L24.1059 29.4129C24.9851 28.9272 25.8547 28.4247 26.7171 27.9096C28.4387 26.8753 30.1298 25.7897 31.7707 24.6319C32.5911 24.053 33.3969 23.4542 34.1817 22.8292C34.9644 22.2021 35.7262 21.5468 36.4251 20.8307C36.7751 20.4727 37.0978 20.0916 37.3818 19.6812C37.6647 19.2709 37.9224 18.8396 38.0953 18.3737C38.1823 18.1413 38.2452 17.9016 38.2682 17.6566C38.2892 17.4127 38.2693 17.1635 38.1802 16.9374C38.0932 16.7113 37.9434 16.5103 37.7548 16.3564C37.5662 16.1993 37.3451 16.0842 37.1146 15.9952C36.6504 15.8204 36.1506 15.7461 35.6529 15.7136C35.1541 15.6822 34.6522 15.6969 34.1524 15.7356C33.1528 15.8162 32.1626 15.9921 31.1839 16.2151L31.1682 16.2182L31.1556 16.2077L31.01 16.0863L30.9618 16.0465L31.0226 16.0298C32.3344 15.6749 33.6673 15.3807 35.0221 15.2415C35.6979 15.1713 36.3811 15.1347 37.0611 15.1881C37.4006 15.2163 37.7391 15.2645 38.0691 15.3545C38.3971 15.4446 38.7198 15.5733 38.9985 15.7743C39.2762 15.9722 39.5046 16.2496 39.6136 16.5762C39.7268 16.9008 39.7289 17.2535 39.6723 17.5885C39.6136 17.9246 39.4994 18.2481 39.3579 18.5569C39.2175 18.8668 39.0467 19.162 38.8623 19.4467C38.4924 20.0173 38.0618 20.5459 37.607 21.0495C37.1512 21.553 36.665 22.0294 36.1652 22.4889L36.1631 22.4879ZM36.1631 22.4879C36.6609 22.0262 37.1449 21.5488 37.5986 21.0432C38.0513 20.5376 38.4799 20.0079 38.8466 19.4373C39.0289 19.1515 39.1987 18.8563 39.337 18.5475C39.4774 18.2397 39.5884 17.9162 39.645 17.5833C39.7006 17.2515 39.6964 16.9028 39.5843 16.5846C39.4763 16.2643 39.2511 15.9931 38.9765 15.7994C38.702 15.6026 38.3824 15.477 38.0565 15.3891C37.7296 15.3011 37.3933 15.254 37.0559 15.2279C36.38 15.1776 35.7 15.2163 35.0252 15.2896C33.6756 15.433 32.346 15.7324 31.0383 16.0915L31.0509 16.035L31.1976 16.1554L31.1693 16.1491C32.149 15.9219 33.1413 15.7408 34.1461 15.656C34.648 15.6152 35.1531 15.5984 35.6581 15.6278C36.161 15.6581 36.6682 15.7314 37.147 15.9083C37.3849 15.9994 37.6154 16.1177 37.8145 16.2821C38.0146 16.4443 38.177 16.6579 38.2703 16.9008C38.3667 17.1436 38.3887 17.4074 38.3667 17.6629C38.3436 17.9194 38.2787 18.1675 38.1907 18.4061C38.0146 18.8846 37.7548 19.3232 37.4698 19.7399C37.1848 20.1565 36.8568 20.5449 36.5058 20.9071C35.8058 21.6336 35.0336 22.2838 34.2488 22.9119C33.4598 23.5369 32.6509 24.1336 31.8273 24.7104C30.1812 25.8651 28.4837 26.9455 26.7569 27.9745C25.8925 28.4875 25.0207 28.9879 24.1384 29.4705L23.4752 29.8285L23.143 30.0055L22.815 30.1897C22.3792 30.4389 21.9443 30.6901 21.522 30.9602C21.4173 31.0282 21.3125 31.0973 21.214 31.1727C21.1899 31.1916 21.1658 31.2115 21.1448 31.2313C21.1343 31.2418 21.1239 31.2523 21.1186 31.2617C21.1144 31.2659 21.1165 31.2722 21.1155 31.2596C21.1082 31.2429 21.1029 31.2481 21.1092 31.2481C21.1564 31.2481 21.2234 31.2251 21.28 31.2073C21.5158 31.1267 21.7473 31.0272 21.9768 30.9288C22.4368 30.7288 22.8936 30.5184 23.3484 30.3059C24.2579 29.8798 25.1621 29.4412 26.0643 29.0005L26.7402 28.6686L27.4003 28.3053L28.7174 27.5725C29.5934 27.0805 30.4651 26.5801 31.3222 26.0567C33.0386 25.015 34.691 23.8541 36.1652 22.4868L36.1631 22.4879Z" fill="url(#paint17_linear_2_1124)"/>
<defs>
<linearGradient id="paint0_linear_2_1124" x1="30.2945" y1="10.9804" x2="19.3063" y2="40.3819" gradientUnits="userSpaceOnUse">
<stop offset="0.27" stop-color="#0094B5" stop-opacity="0"/>
<stop offset="0.35" stop-color="#0196B5" stop-opacity="0.02"/>
<stop offset="0.44" stop-color="#069CB7" stop-opacity="0.08"/>
<stop offset="0.54" stop-color="#0EA6BA" stop-opacity="0.17"/>
<stop offset="0.64" stop-color="#19B4BE" stop-opacity="0.3"/>
<stop offset="0.74" stop-color="#28C6C3" stop-opacity="0.47"/>
<stop offset="0.85" stop-color="#39DCCA" stop-opacity="0.68"/>
<stop offset="0.97" stop-color="#4EF6D1" stop-opacity="0.92"/>
<stop offset="1" stop-color="#55FFD4"/>
</linearGradient>
<linearGradient id="paint1_linear_2_1124" x1="10.1019" y1="2.0319" x2="36.6666" y2="48.4477" gradientUnits="userSpaceOnUse">
<stop offset="0.28" stop-color="#2B1FB3" stop-opacity="0"/>
<stop offset="0.4" stop-color="#2B21B3" stop-opacity="0.01"/>
<stop offset="0.5" stop-color="#2D2AB4" stop-opacity="0.05"/>
<stop offset="0.58" stop-color="#2F38B6" stop-opacity="0.11"/>
<stop offset="0.66" stop-color="#334CB9" stop-opacity="0.2"/>
<stop offset="0.74" stop-color="#3866BD" stop-opacity="0.32"/>
<stop offset="0.81" stop-color="#3E86C2" stop-opacity="0.46"/>
<stop offset="0.88" stop-color="#45ACC7" stop-opacity="0.63"/>
<stop offset="0.95" stop-color="#4DD7CE" stop-opacity="0.82"/>
<stop offset="1" stop-color="#55FFD4"/>
</linearGradient>
<linearGradient id="paint2_linear_2_1124" x1="-2.41212" y1="6.11919" x2="19.4698" y2="21.6231" gradientUnits="userSpaceOnUse">
<stop offset="0.27" stop-color="#0094B5" stop-opacity="0"/>
<stop offset="0.35" stop-color="#0196B5" stop-opacity="0.02"/>
<stop offset="0.44" stop-color="#069CB7" stop-opacity="0.08"/>
<stop offset="0.54" stop-color="#0EA6BA" stop-opacity="0.17"/>
<stop offset="0.64" stop-color="#19B4BE" stop-opacity="0.3"/>
<stop offset="0.74" stop-color="#28C6C3" stop-opacity="0.47"/>
<stop offset="0.85" stop-color="#39DCCA" stop-opacity="0.68"/>
<stop offset="0.97" stop-color="#4EF6D1" stop-opacity="0.92"/>
<stop offset="1" stop-color="#55FFD4"/>
</linearGradient>
<linearGradient id="paint3_linear_2_1124" x1="7.44491" y1="3.55307" x2="33.9814" y2="49.9207" gradientUnits="userSpaceOnUse">
<stop offset="0.28" stop-color="#2B1FB3" stop-opacity="0"/>
<stop offset="0.4" stop-color="#2B21B3" stop-opacity="0.01"/>
<stop offset="0.5" stop-color="#2D2AB4" stop-opacity="0.05"/>
<stop offset="0.58" stop-color="#2F38B6" stop-opacity="0.11"/>
<stop offset="0.66" stop-color="#334CB9" stop-opacity="0.2"/>
<stop offset="0.74" stop-color="#3866BD" stop-opacity="0.32"/>
<stop offset="0.81" stop-color="#3E86C2" stop-opacity="0.46"/>
<stop offset="0.88" stop-color="#45ACC7" stop-opacity="0.63"/>
<stop offset="0.95" stop-color="#4DD7CE" stop-opacity="0.82"/>
<stop offset="1" stop-color="#55FFD4"/>
</linearGradient>
<linearGradient id="paint4_linear_2_1124" x1="4.37347" y1="-0.868837" x2="19.1102" y2="35.1894" gradientUnits="userSpaceOnUse">
<stop offset="0.27" stop-color="#0094B5" stop-opacity="0"/>
<stop offset="0.35" stop-color="#0196B5" stop-opacity="0.02"/>
<stop offset="0.44" stop-color="#069CB7" stop-opacity="0.08"/>
<stop offset="0.54" stop-color="#0EA6BA" stop-opacity="0.17"/>
<stop offset="0.64" stop-color="#19B4BE" stop-opacity="0.3"/>
<stop offset="0.74" stop-color="#28C6C3" stop-opacity="0.47"/>
<stop offset="0.85" stop-color="#39DCCA" stop-opacity="0.68"/>
<stop offset="0.97" stop-color="#4EF6D1" stop-opacity="0.92"/>
<stop offset="1" stop-color="#55FFD4"/>
</linearGradient>
<linearGradient id="paint5_linear_2_1124" x1="5.8897" y1="6.301" x2="28.0355" y2="44.9969" gradientUnits="userSpaceOnUse">
<stop offset="0.28" stop-color="#2B1FB3" stop-opacity="0"/>
<stop offset="0.4" stop-color="#2B21B3" stop-opacity="0.01"/>
<stop offset="0.5" stop-color="#2D2AB4" stop-opacity="0.05"/>
<stop offset="0.58" stop-color="#2F38B6" stop-opacity="0.11"/>
<stop offset="0.66" stop-color="#334CB9" stop-opacity="0.2"/>
<stop offset="0.74" stop-color="#3866BD" stop-opacity="0.32"/>
<stop offset="0.81" stop-color="#3E86C2" stop-opacity="0.46"/>
<stop offset="0.88" stop-color="#45ACC7" stop-opacity="0.63"/>
<stop offset="0.95" stop-color="#4DD7CE" stop-opacity="0.82"/>
<stop offset="1" stop-color="#55FFD4"/>
</linearGradient>
<linearGradient id="paint6_linear_2_1124" x1="37.864" y1="17.3437" x2="27.8432" y2="20.9818" gradientUnits="userSpaceOnUse">
<stop offset="0.27" stop-color="#00D3B5" stop-opacity="0"/>
<stop offset="0.35" stop-color="#01D3B5" stop-opacity="0.02"/>
<stop offset="0.44" stop-color="#06D6B7" stop-opacity="0.08"/>
<stop offset="0.54" stop-color="#0EDABA" stop-opacity="0.17"/>
<stop offset="0.64" stop-color="#19E0BE" stop-opacity="0.3"/>
<stop offset="0.74" stop-color="#28E7C3" stop-opacity="0.47"/>
<stop offset="0.85" stop-color="#39F0CA" stop-opacity="0.68"/>
<stop offset="0.97" stop-color="#4EFBD1" stop-opacity="0.92"/>
<stop offset="1" stop-color="#55FFD4"/>
</linearGradient>
<linearGradient id="paint7_linear_2_1124" x1="26.4509" y1="14.0794" x2="33.5695" y2="26.5176" gradientUnits="userSpaceOnUse">
<stop offset="0.28" stop-color="white" stop-opacity="0"/>
<stop offset="0.72" stop-color="white" stop-opacity="0.62"/>
<stop offset="1" stop-color="white"/>
</linearGradient>
<linearGradient id="paint8_linear_2_1124" x1="26.3252" y1="13.9578" x2="33.6133" y2="26.6913" gradientUnits="userSpaceOnUse">
<stop offset="0.28" stop-color="#2B1FB3" stop-opacity="0.5"/>
<stop offset="0.41" stop-color="#2B21B3" stop-opacity="0.51"/>
<stop offset="0.5" stop-color="#2D2AB4" stop-opacity="0.53"/>
<stop offset="0.59" stop-color="#3039B6" stop-opacity="0.56"/>
<stop offset="0.67" stop-color="#344FBA" stop-opacity="0.61"/>
<stop offset="0.75" stop-color="#396BBE" stop-opacity="0.67"/>
<stop offset="0.82" stop-color="#3F8DC3" stop-opacity="0.75"/>
<stop offset="0.9" stop-color="#47B5C9" stop-opacity="0.84"/>
<stop offset="0.96" stop-color="#4FE3CF" stop-opacity="0.94"/>
<stop offset="1" stop-color="#55FFD4"/>
</linearGradient>
<linearGradient id="paint9_linear_2_1124" x1="24.8094" y1="37.3249" x2="41.8282" y2="33.6649" gradientUnits="userSpaceOnUse">
<stop offset="0.27" stop-color="#0094B5" stop-opacity="0"/>
<stop offset="0.35" stop-color="#0196B5" stop-opacity="0.02"/>
<stop offset="0.44" stop-color="#069CB7" stop-opacity="0.08"/>
<stop offset="0.54" stop-color="#0EA6BA" stop-opacity="0.17"/>
<stop offset="0.64" stop-color="#19B4BE" stop-opacity="0.3"/>
<stop offset="0.74" stop-color="#28C6C3" stop-opacity="0.47"/>
<stop offset="0.85" stop-color="#39DCCA" stop-opacity="0.68"/>
<stop offset="0.97" stop-color="#4EF6D1" stop-opacity="0.92"/>
<stop offset="1" stop-color="#55FFD4"/>
</linearGradient>
<linearGradient id="paint10_linear_2_1124" x1="33.5038" y1="25.0253" x2="43.387" y2="42.2959" gradientUnits="userSpaceOnUse">
<stop offset="0.28" stop-color="#2B1FB3" stop-opacity="0"/>
<stop offset="0.4" stop-color="#2B21B3" stop-opacity="0.01"/>
<stop offset="0.5" stop-color="#2D2AB4" stop-opacity="0.05"/>
<stop offset="0.58" stop-color="#2F38B6" stop-opacity="0.11"/>
<stop offset="0.66" stop-color="#334CB9" stop-opacity="0.2"/>
<stop offset="0.74" stop-color="#3866BD" stop-opacity="0.32"/>
<stop offset="0.81" stop-color="#3E86C2" stop-opacity="0.46"/>
<stop offset="0.88" stop-color="#45ACC7" stop-opacity="0.63"/>
<stop offset="0.95" stop-color="#4DD7CE" stop-opacity="0.82"/>
<stop offset="1" stop-color="#55FFD4"/>
</linearGradient>
<linearGradient id="paint11_linear_2_1124" x1="28.0311" y1="16.0955" x2="33.2787" y2="25.2649" gradientUnits="userSpaceOnUse">
<stop offset="0.28" stop-color="#2B1FB3" stop-opacity="0.5"/>
<stop offset="0.41" stop-color="#2B21B3" stop-opacity="0.51"/>
<stop offset="0.5" stop-color="#2D2AB4" stop-opacity="0.53"/>
<stop offset="0.59" stop-color="#3039B6" stop-opacity="0.56"/>
<stop offset="0.67" stop-color="#344FBA" stop-opacity="0.61"/>
<stop offset="0.75" stop-color="#396BBE" stop-opacity="0.67"/>
<stop offset="0.82" stop-color="#3F8DC3" stop-opacity="0.75"/>
<stop offset="0.9" stop-color="#47B5C9" stop-opacity="0.84"/>
<stop offset="0.96" stop-color="#4FE3CF" stop-opacity="0.94"/>
<stop offset="1" stop-color="#55FFD4"/>
</linearGradient>
<linearGradient id="paint12_linear_2_1124" x1="51.8965" y1="12.2342" x2="11.8358" y2="26.4413" gradientUnits="userSpaceOnUse">
<stop offset="0.27" stop-color="#0094B5" stop-opacity="0"/>
<stop offset="0.33" stop-color="#0297B5" stop-opacity="0.03"/>
<stop offset="0.43" stop-color="#09A0B8" stop-opacity="0.11"/>
<stop offset="0.55" stop-color="#15AFBC" stop-opacity="0.25"/>
<stop offset="0.68" stop-color="#25C3C2" stop-opacity="0.44"/>
<stop offset="0.83" stop-color="#3ADDCA" stop-opacity="0.69"/>
<stop offset="0.99" stop-color="#53FDD3" stop-opacity="0.98"/>
<stop offset="1" stop-color="#55FFD4"/>
</linearGradient>
<linearGradient id="paint13_linear_2_1124" x1="0.572057" y1="32.0458" x2="24.7913" y2="19.4288" gradientUnits="userSpaceOnUse">
<stop offset="0.28" stop-color="#2B1FB3" stop-opacity="0"/>
<stop offset="0.4" stop-color="#2B21B3" stop-opacity="0.01"/>
<stop offset="0.5" stop-color="#2D2AB4" stop-opacity="0.05"/>
<stop offset="0.58" stop-color="#2F38B6" stop-opacity="0.11"/>
<stop offset="0.66" stop-color="#334CB9" stop-opacity="0.2"/>
<stop offset="0.74" stop-color="#3866BD" stop-opacity="0.32"/>
<stop offset="0.81" stop-color="#3E86C2" stop-opacity="0.46"/>
<stop offset="0.88" stop-color="#45ACC7" stop-opacity="0.63"/>
<stop offset="0.95" stop-color="#4DD7CE" stop-opacity="0.82"/>
<stop offset="1" stop-color="#55FFD4"/>
</linearGradient>
<linearGradient id="paint14_linear_2_1124" x1="13.0158" y1="23.6928" x2="14.1463" y2="31.0517" gradientUnits="userSpaceOnUse">
<stop offset="0.27" stop-color="#0094B5" stop-opacity="0"/>
<stop offset="0.33" stop-color="#0297B5" stop-opacity="0.03"/>
<stop offset="0.43" stop-color="#09A0B8" stop-opacity="0.11"/>
<stop offset="0.55" stop-color="#15AFBC" stop-opacity="0.25"/>
<stop offset="0.68" stop-color="#25C3C2" stop-opacity="0.44"/>
<stop offset="0.83" stop-color="#3ADDCA" stop-opacity="0.69"/>
<stop offset="0.99" stop-color="#53FDD3" stop-opacity="0.98"/>
<stop offset="1" stop-color="#55FFD4"/>
</linearGradient>
<linearGradient id="paint15_linear_2_1124" x1="0.510222" y1="32.0456" x2="24.7777" y2="19.4035" gradientUnits="userSpaceOnUse">
<stop stop-color="#55FFD4"/>
<stop offset="0.05" stop-color="#4DD7CE" stop-opacity="0.82"/>
<stop offset="0.12" stop-color="#45ACC7" stop-opacity="0.63"/>
<stop offset="0.19" stop-color="#3E86C2" stop-opacity="0.46"/>
<stop offset="0.26" stop-color="#3866BD" stop-opacity="0.32"/>
<stop offset="0.34" stop-color="#334CB9" stop-opacity="0.2"/>
<stop offset="0.42" stop-color="#2F38B6" stop-opacity="0.11"/>
<stop offset="0.5" stop-color="#2D2AB4" stop-opacity="0.05"/>
<stop offset="0.6" stop-color="#2B21B3" stop-opacity="0.01"/>
<stop offset="0.72" stop-color="#2B1FB3" stop-opacity="0"/>
</linearGradient>
<linearGradient id="paint16_linear_2_1124" x1="60.3443" y1="10.3905" x2="28.1939" y2="20.9241" gradientUnits="userSpaceOnUse">
<stop offset="0.27" stop-color="#0094B5" stop-opacity="0"/>
<stop offset="0.33" stop-color="#0297B5" stop-opacity="0.03"/>
<stop offset="0.43" stop-color="#09A0B8" stop-opacity="0.11"/>
<stop offset="0.55" stop-color="#15AFBC" stop-opacity="0.25"/>
<stop offset="0.68" stop-color="#25C3C2" stop-opacity="0.44"/>
<stop offset="0.83" stop-color="#3ADDCA" stop-opacity="0.69"/>
<stop offset="0.99" stop-color="#53FDD3" stop-opacity="0.98"/>
<stop offset="1" stop-color="#55FFD4"/>
</linearGradient>
<linearGradient id="paint17_linear_2_1124" x1="19.0471" y1="27.4825" x2="39.745" y2="16.6991" gradientUnits="userSpaceOnUse">
<stop offset="0.28" stop-color="#2B1FB3" stop-opacity="0"/>
<stop offset="0.4" stop-color="#2B21B3" stop-opacity="0.01"/>
<stop offset="0.5" stop-color="#2D2AB4" stop-opacity="0.05"/>
<stop offset="0.58" stop-color="#2F38B6" stop-opacity="0.11"/>
<stop offset="0.66" stop-color="#334CB9" stop-opacity="0.2"/>
<stop offset="0.74" stop-color="#3866BD" stop-opacity="0.32"/>
<stop offset="0.81" stop-color="#3E86C2" stop-opacity="0.46"/>
<stop offset="0.88" stop-color="#45ACC7" stop-opacity="0.63"/>
<stop offset="0.95" stop-color="#4DD7CE" stop-opacity="0.82"/>
<stop offset="1" stop-color="#55FFD4"/>
</linearGradient>
</defs>
</svg>
