<svg width="88" height="87" viewBox="0 0 88 87" fill="none" xmlns="http://www.w3.org/2000/svg">
<path d="M40.7948 56.3387V74.9022L20.8475 86.4203L0.900269 74.9022V51.8691L20.8475 40.3542L35.523 48.8255C35.6464 52.2329 37.7935 55.1271 40.7981 56.3419L40.7948 56.3387Z" fill="url(#paint0_linear_2_1223)"/>
<path d="M87.02 51.8666V74.8997L67.0728 86.4178L47.1255 74.8997V56.3361C50.1301 55.1213 52.2739 52.2304 52.4006 48.8198L67.076 40.3484L87.0233 51.8634L87.02 51.8666Z" fill="url(#paint1_linear_2_1223)"/>
<path d="M63.9088 11.8509V34.884L50.1916 42.8032C48.6487 41.1173 46.4269 40.0584 43.9583 40.0584C41.4896 40.0584 39.2711 41.1173 37.7282 42.8032L24.011 34.884V11.8509L43.9583 0.332764L63.9088 11.8509Z" fill="url(#paint2_linear_2_1223)"/>
<defs>
<linearGradient id="paint0_linear_2_1223" x1="-11.7288" y1="32.7826" x2="58.1825" y2="100.69" gradientUnits="userSpaceOnUse">
<stop stop-color="#5AB2F7"/>
<stop offset="0.29" stop-color="#45B8E3"/>
<stop offset="0.87" stop-color="#10CAB1"/>
<stop offset="1" stop-color="#04CFA6"/>
</linearGradient>
<linearGradient id="paint1_linear_2_1223" x1="11.2295" y1="9.14612" x2="81.144" y2="77.05" gradientUnits="userSpaceOnUse">
<stop stop-color="#5AB2F7"/>
<stop offset="0.29" stop-color="#45B8E3"/>
<stop offset="0.87" stop-color="#10CAB1"/>
<stop offset="1" stop-color="#04CFA6"/>
</linearGradient>
<linearGradient id="paint2_linear_2_1223" x1="20.0092" y1="0.10539" x2="89.9237" y2="68.0093" gradientUnits="userSpaceOnUse">
<stop stop-color="#5AB2F7"/>
<stop offset="0.29" stop-color="#45B8E3"/>
<stop offset="0.87" stop-color="#10CAB1"/>
<stop offset="1" stop-color="#04CFA6"/>
</linearGradient>
</defs>
</svg>
